# xmcd
# 
# Track frame offsets:
#	182
#	10885
#	25652
#	36930
#	49185
#	61017
#	74102
#	82910
#	93860
#	105877
#	118502
#	130122
#	137752
#	151617
#	160895
#	173240
#	184640
#	193437
#	202935
#	219892
#
# Disc length: 3058 seconds
#
# Revision: 1
# Processed by: cddbd v1.4PL0 Copyright (c) Steve Scherf et al.
# Submitted via: Audio-CD-Archiv 2.10.446
#
DISCID=000bf014
DTITLE=Various Artist - 20 Country Classics pt.2
DYEAR=1900
DGENRE=country
TTITLE0=Roger Miller - King of the road
TTITLE1=The Kingston Trio - Tom Dooley
TTITLE2=Frankie Laine - Answer me
TTITLE3=Freddy Fender - Wasted days and wasted nights
TTITLE4=Dolly Parton - Making believe
TTITLE5=Lynn Anderson - Rose Garden
TTITLE6=Glenn Chambell - Walk right in
TTITLE7=Hank Locklin - Send me the pillow
TTITLE8=Waylon Jennings - Don´t think twice it´s allright
TTITLE9=Johnny Cash - Folsom Prison Blues
TTITLE10=Patsy Cline - Today, tomorrow, forever
TTITLE11=Roger Miller - Do wacka do
TTITLE12=Jimmy Dean - Release me
TTITLE13=Conway Twitty - This road that I walk
TTITLE14=Kenny Rogers - Reuben James
TTITLE15=George Jones - White lightning
TTITLE16=Ferlin Husky - Wings of a dove
TTITLE17=Ned Miller - From a Jack to a King
TTITLE18=Willie Nelson - I let my mind wonder
TTITLE19=Flatt and Scrugs - Foggy mountain breakdown
EXTD=
EXTT0=
EXTT1=
EXTT2=
EXTT3=
EXTT4=
EXTT5=
EXTT6=
EXTT7=
EXTT8=
EXTT9=
EXTT10=
EXTT11=
EXTT12=
EXTT13=
EXTT14=
EXTT15=
EXTT16=
EXTT17=
EXTT18=
EXTT19=
PLAYORDER=
